<?xml version="1.0" encoding="utf-8"?>
<!-- Generator: Adobe Illustrator 23.0.1, SVG Export Plug-In . SVG Version: 6.00 Build 0)  -->
<svg version="1.1" id="Layer_1" xmlns="http://www.w3.org/2000/svg" xmlns:xlink="http://www.w3.org/1999/xlink" x="0px" y="0px"
	 viewBox="0 0 1920 969" style="enable-background:new 0 0 1920 969;" xml:space="preserve">
<style type="text/css">
	.st0{fill:#84CDE6;}
	.st1{fill:#F4DDA8;}
	.st2{fill:#9B9B9B;}
	.st3{fill:#E0E0E0;}
	.st4{fill:none;}
	.st5{fill:#A2009B;}
	.st6{fill:#D7AC8B;}
	.st7{fill:#444444;}
	.st8{fill:#3B3B3B;}
	.st9{fill:#473324;}
	.st10{fill:#4E3825;}
	.st11{fill:#D29D77;}
	.st12{fill:none;stroke:#3B3B3B;stroke-miterlimit:10;}
	.st13{fill:none;stroke:#473324;stroke-miterlimit:10;}
	.st14{fill:#5B5B5B;}
	.st15{fill:#CC7415;}
	.st16{fill:#72400E;}
	.st17{fill:#FFFFFF;}
	.st18{fill:#000317;}
	.st19{fill:#9CFC97;}
	.st20{fill:#090073;}
	.st21{fill:#191307;}
	.st22{fill:#414142;}
	.st23{fill:#BF997F;}
	.st24{fill:#274775;}
	.st25{fill:#E9EAF2;}
	.st26{fill:#9B4566;}
	.st27{fill:#000517;}
	.st28{fill:#FFCC47;}
	.st29{fill:#3F2C03;}
	.st30{fill:#1F6634;}
	.st31{fill:none;stroke:#FFFFFF;stroke-width:5;stroke-miterlimit:10;}
	.st32{fill:none;stroke:#FFFFFF;stroke-width:5;stroke-miterlimit:10;stroke-dasharray:12.0876,12.0876;}
	.st33{fill:none;stroke:#FFFFFF;stroke-width:5;stroke-miterlimit:10;stroke-dasharray:12.1785,12.1785;}
	.st34{fill:#F15A24;}
	.st35{fill:#F7931E;}
	.st36{fill:#29ABE2;}
	.st37{fill:#0000FF;}
	.st38{fill:#998675;}
	.st39{fill:#ED1C24;}
	.st40{fill:#662D91;}
	.st41{fill:#6B6D6B;}
	.st42{fill:#888988;}
	.st43{fill:#181E3A;}
	.st44{fill:#EADFD8;}
	.st45{fill:#9A9BA0;}
	.st46{fill:#FFFFFF;stroke:#FFFFFF;stroke-width:5;stroke-miterlimit:10;}
</style>
<path class="st0" d="M1492,973c-229.6,0-459.3,0-688.9,0c-31.1,0-62.2,0-93.3,0c-37.6,0-75.3,0-112.9,0c-211.6,0-423.2,0-634.8,0
	c0-326,0-652,0-978h1530V973z"/>
<polyline class="st0" points="179.7,236.4 249,236 240,220 "/>
<path class="st1" d="M814.5,892.1c6-4.7,15.3-12.2,28.7-22.1c9-6.6,17.1-12.3,21.1-15.1c33.8-23.1,73.2-38.6,76.6-39.9
	c22.5-8.7,39-12.7,69-20c0,0,34.3-8.3,64-13c106.2-16.8,160.2,23.1,227-9c14.3-6.9,35.3-19.9,56-47v237.3
	c-561.2,19.2-686.2,11.6-687,0C669.4,954.3,743.2,947.1,814.5,892.1z"/>
<path class="st1" d="M517,932c-35.8-17-41.1-20.9-59-29c-49.5-22.3-92.7-29.8-112-33c-40.2-6.7-60.8-4.6-132-15
	c-12.8-1.9-25.7-3.9-41-11c-27-12.5-27.1-24.5-55-41c-14.8-8.8-36.3-21.5-63-22c-9-0.2-26.5,0.9-51-4c-3.8-0.8-6.9-1.5-9-2v191
	c482.6,14.7,588.9,7.8,589.6-2C584.8,960.6,572.3,958.2,517,932z"/>
<g>
	<path class="st2" d="M1000.7,652.4H694.5c-6.7,0-12.1-5.4-12.1-12.1V472.8c0-6.7,5.4-12.1,12.1-12.1h306.2
		c6.7,0,12.1,5.4,12.1,12.1v167.5C1012.8,647,1007.4,652.4,1000.7,652.4z"/>
</g>
<circle class="st3" cx="726.5" cy="511.5" r="18.5"/>
<circle class="st3" cx="726.5" cy="565.5" r="18.5"/>
<path class="st3" d="M973,528H797c-8.8,0-16-7.2-16-16v0c0-8.8,7.2-16,16-16h176c8.8,0,16,7.2,16,16v0C989,520.8,981.8,528,973,528z
	"/>
<path class="st3" d="M973,583H797c-8.8,0-16-7.2-16-16l0,0c0-8.8,7.2-16,16-16h176c8.8,0,16,7.2,16,16l0,0
	C989,575.8,981.8,583,973,583z"/>
<path class="st3" d="M973,631h-45c-8.8,0-16-7.2-16-16l0,0c0-8.8,7.2-16,16-16h45c8.8,0,16,7.2,16,16l0,0
	C989,623.8,981.8,631,973,631z"/>
<path class="st4" d="M577.2,604.8c-0.1,0.1-0.2,0.3-0.3,0.5c-0.9,1.6-3,6-2.5,11.7c0.3,3.7,1.5,7.9,2.3,9.2"/>
<g id="XMLID_1_">
	<g>
		<path class="st5" d="M740.9,567.4c0.2,0.6-0.5,1.4-0.6,1.5c-0.5,0.4-1,0.7-1.6,1.1h0c-2.5,1-2.9,0-1-3.1c0.4-0.2,1-0.3,1.5-0.3
			C739.6,566.6,740.7,566.6,740.9,567.4z"/>
		<path class="st6" d="M738.8,570c-3,2.2-6.1,4.3-9.1,6.5c0.3,0.1,0.7,0.4,1.1,0.8c0.4,0.3,1.2,1,1.1,1.5c-0.1,0.4-0.9,0.2-1.1,0.8
			c-0.3,0.8,0.5,2.2,0.6,2.3c0.6,1,1.1,1,1.1,1.5c0.1,0.9-1.2,1.4-1.1,2.3c0.1,0.7,1,0.7,1.1,1.5c0.2,0.9-0.8,2.1-1.1,2.3
			c-2.9,1.7-25.9,15.8-25.6,16.5c-3.9-0.7-7-2.6-8.8-6c6.1-2.6,8.2-6.1,9-9c0.9-3.4-0.1-6.2,1.7-10.7c0.8-1.9,1.6-3.1,1.7-5.3
			c1.7-0.2,2.3-1.7,1.7-4.6c1.4,0.7,2.4,2.7,2.3,4.6c-0.1,1.2-0.6,1.5-1.1,3.1c-0.6,1.7-0.7,3.5-0.6,5.3c13.7-8,22.4-13.4,24.3-15.3
			c0.1-0.1,0.8-0.8,1.9-1.2C735.9,570,736.2,571.1,738.8,570z"/>
		<path class="st5" d="M711,570.4c0.6,2.8,0,4.4-1.7,4.6c0.1-2.2-0.6-3.8,0-4.6C709.8,569.8,710.7,570.3,711,570.4z"/>
		<path class="st7" d="M601.6,659.7c-0.9-0.3-1.9-0.5-2.8-0.6c-4.9-1.7-9-6.5-12.5-14.3l-0.8,14.9c-3.6-1.2-8.1-2.5-13.4-3.8
			c-13.3-3.2-19.8-2.9-22.6-9.2c-1.1-2.5-1.4-5.4-1.1-8.4c2.6-8.9,6-19,10.7-29.8c5.6-12.8,9.9-20.9,15.2-29l0.2-0.1
			c2.9,11.4,3.3,17.1,7.7,20c2.6,1.7,5.7,1.4,11.9,1.5c1.7,0,4.9,0.1,8.5-0.3c3.5-0.4,7.5-1.1,10.7-2.8c6.7-3.4,10.4-10.5,15.4-23.5
			l7.7,2.9l6.2,2.3c9.2,9.9,24.8,42.8,24.8,42.8l28.8-23.7c0.2,0.5,0.4,0.9,0.6,1.3c1.8,3.5,4.9,5.3,8.8,6v0
			c0.6,0.1,1.2,0.2,1.9,0.3c-6.6,7.8-12.3,14.4-17.2,19.9c-30.8,29-36.4,7.6-50-10.7c0,0-0.6,38.2-0.4,38.7l-0.8,5.6l6.8,28.4
			l4.5,18.9h-3.4v0.8c-30.2-1.6-56.5-5.9-72.3-17.6c1.4-5,2.8-9.7,4.4-14.2c6.3-12.5,12.8-17.7,19.5-17
			C599.7,659.4,600.6,659.6,601.6,659.7z M584.6,644.5c-2.6-6.1-5.3-12.2-7.9-18.3c-2.1,4.1-4.1,8.1-6.2,12.2
			C575.2,640.4,579.9,642.4,584.6,644.5z"/>
		<path class="st7" d="M647.3,714.7l0.5,34.4h-16.5h-24.7h-4.7h-14.4h-8.1C593.6,712.4,611.6,704.8,647.3,714.7z"/>
		<path class="st8" d="M647.2,711.7l0,3c-35.6-9.9-53.7-2.3-68,34.4h-11.6c0.7-18.6,2.7-34.9,7.9-45.8h-4c1-4.5,2.2-8.9,3.3-13.1
			c15.8,11.7,42.1,16,72.3,17.6V711.7z"/>
		<path class="st9" d="M645,506.3c1.4,20.6-4.3,36-12.4,58c-1.4,3.7-2.6,7-3.8,10.1c-5,13-8.8,20.1-15.4,23.5
			c-3.2,1.6-7.2,2.4-10.7,2.8c31.8-40.5,37.1-84.1,9-131.5c2,0,4.2,0.2,6.2,0.5c2.4,0.3,12.5,0.9,18.1,6.9
			C643.5,484.6,644.4,498.3,645,506.3z"/>
		<path class="st7" d="M624.1,871.3c11.4,3.3,15.3,7.5,14.1,12.2h-35v-1.5l1-13.6l0.1-1.6l8.6,4.1c0.7,0.3,1.4,0.5,2.1,0.5H624.1z"
			/>
		<path class="st6" d="M606.6,749.1h24.7c-3.8,52.7-24.7,104.6-7.2,122.2H615c-0.7,0-1.4-0.2-2.1-0.5l-8.6-4.1
			C613.2,828.8,596.3,783.3,606.6,749.1z"/>
		<path class="st10" d="M611.6,469.2c28.1,47.5,22.8,91-9,131.5c-3.6,0.4-6.8,0.3-8.5,0.3c-6.2-0.1-9.2,0.2-11.9-1.5
			c-4.4-2.9-4.8-8.5-7.7-20c-0.8-3.1-1.8-6.6-3-10.6c-3.7-11.4-4.2-9.5-6.8-18.3c-2.2-7.6-5.4-18.9-4.5-33.6
			c0.3-4.5,1.1-15.9,6.8-27.5c2-4.1,5.5-11,11.9-15.3c1.6-1.1,4.1-2.5,15.2-3.8c6-0.7,4.8-0.6,6.9-0.8
			C603.5,469.4,607.4,469.1,611.6,469.2z"/>
		<path class="st11" d="M601.8,749.1h4.7c-10.3,34.2,6.6,79.7-2.3,117.6l-0.1,1.6l-4.4-2.4c1.9-8.8,2.3-16.8,1.9-24.6
			C602.6,820.1,594.2,798,601.8,749.1z"/>
		<polygon class="st8" points="604.2,868.3 603.2,881.9 597.5,881.9 597.5,865.1 599.8,865.9 		"/>
		<path class="st6" d="M587.4,749.1h14.4c-7.7,48.9,0.8,71-0.1,92.3C600.3,815.9,589.5,792.3,587.4,749.1z"/>
		<path class="st8" d="M598.8,659c-6.7-0.7-13.2,4.5-19.5,17c2-5.7,4-11,6.2-15.8c0.1-0.1,0.1-0.3,0.2-0.4c-0.1,0-0.1,0-0.2-0.1
			l0.8-14.9C589.7,652.6,593.9,657.3,598.8,659z"/>
	</g>
	<g>
		<path class="st12" d="M601.8,659.8c-0.1,0-0.1-0.1-0.2-0.1c-0.9-0.3-1.9-0.5-2.8-0.6c-6.7-0.7-13.2,4.5-19.5,17"/>
		<path class="st13" d="M611.5,469c0,0,0.1,0.1,0.1,0.1c28.1,47.5,22.8,91-9,131.5"/>
		<path class="st12" d="M579.2,749.1c14.3-36.7,32.4-44.3,68-34.4"/>
		<path class="st12" d="M647.2,707.9c-30.2-1.6-56.5-5.9-72.3-17.6"/>
	</g>
</g>
<rect x="334.5" y="230" class="st14" width="15" height="101.5"/>
<rect x="99.5" y="230" class="st14" width="15" height="101.5"/>
<rect x="330.5" y="331.5" width="23" height="7"/>
<rect x="95.5" y="331.5" width="23" height="7"/>
<rect x="89" y="243" class="st15" width="276" height="13"/>
<rect x="68" y="226" class="st16" width="320" height="17"/>
<rect x="968.5" y="227" class="st14" width="15" height="101.5"/>
<rect x="610.5" y="227" class="st14" width="15" height="101.5"/>
<rect x="964.5" y="328.5" width="23" height="7"/>
<rect x="606.5" y="328.5" width="23" height="7"/>
<rect x="598" y="214" class="st15" width="400" height="13"/>
<rect x="577" y="197" class="st16" width="443" height="17"/>
<rect x="823" y="115" width="124" height="68"/>
<polyline class="st0" points="170.5,268.5 179,278 179.7,303.6 172,311 170.5,268.5 "/>
<rect x="828.3" y="120" class="st17" width="113.4" height="58"/>
<rect x="627" y="112" width="124" height="68"/>
<rect x="632.3" y="117" class="st17" width="113.4" height="58"/>
<rect x="159" y="140" width="124" height="68"/>
<rect x="164.3" y="145" class="st17" width="113.4" height="58"/>
<g>
	<path class="st6" d="M208,318c-1.7,4.7-3.3,10.4-4.4,17c-1.2,7.2-1.3,13.7-1.1,19c0,0.3,0,0.7,0,1c-3.3,0-6.6,0-9.9,0
		c-1.1-6.7-2.2-13.3-3.3-20c-1.5-6.3-2.9-12.7-4.4-19"/>
	<path class="st6" d="M216.7,198c2.6,0.3,5.5,0.6,9.3,0c0.9-0.1,5.5-0.9,5.6-2.2c0.1-1-2.6-1.1-4.3-2.7c-4.4-4.1,2-14.1,0-15.1
		c-1.1-0.5-2.6,2.7-7.4,4.3c-0.6,0.2-6,2-11.1,0c-3-1.2-4.4-3-4.9-2.7c-0.7,0.5,2.6,3.5,2.5,7.5c-0.1,4.7-4.7,6.5-3.7,8.6
		C203.1,197.1,205.1,196.7,216.7,198z"/>
	<path class="st6" d="M265.2,257.6c2.6-0.9,3.9-2.9,4-3.1c2.6-4.3-1.5-8.7-3.3-16.7c-2.2-9.8,2-11.2-0.7-17.9
		c-3.7-9.2-14.9-14.4-16.6-13c-1.1,0.9,2.7,4.3,4,12.3c0.2,1.3,0.1,4.8,0,11.7c-0.1,5.1,0.1,10.3,0,15.4c-0.1,3.6-0.1,4.7,0.7,6.2
		C255.2,256.3,260.7,259.1,265.2,257.6z"/>
	<path class="st6" d="M190.9,198.3c-1.3-0.7-2.7,1.3-8.1,4.4c-4.6,2.6-5.5,2.6-7.4,4.4c-2.4,2.3-3.2,5-3.7,6.6
		c-1.3,4.2-0.5,7.8,0,10.3c0.3,1.3,0.6,2.3,1,3.2c1.8,3.9,3.3,6.5,4.1,7.9c3.9,6.5,2.4,14,3,14c0.6,0,0.3-7.2,2.2-17
		c1.6-8.2,3.2-12.2,3.7-13.3c1.6-3.7,2.4-4,3.7-7.4C191.4,206.6,192.9,199.4,190.9,198.3z"/>
	<path class="st18" d="M202.3,368h-9.5c-2.6,0-4.7-2.1-4.7-4.7l0,0c0-2.6,2.1-4.7,4.7-4.7h9.5c2.6,0,4.7,2.1,4.7,4.7v0
		C207,365.9,204.9,368,202.3,368z"/>
	<path class="st19" d="M176.7,301.7c1.7,1.6,4.1,2.4,9.1,4c12.7,4,21.3,1.8,34.5,1c25-1.6,28.2,3.9,32.7-1
		c5.3-5.8,1.8-14.4,1.8-48.1c0-4.9,0.1-9.7,0-14.6c-0.1-4.4-0.1-8.6,0-15.3c0.1-7.8,0.2-8,0-10.2c-0.6-7-0.9-11.7-4-14.6
		c-2.6-2.4-4.2-0.9-8.7-4.4c-1.2-0.9-2.5-2.1-4.7-2.9c-1.6-0.6-3-0.7-4-0.7c-5.6-0.1-8.1,2.3-13.4,2.9c-2.3,0.3-4.2-0.1-8-0.7
		c-6.6-1.1-8.6-2.8-13.4-2.2c-2.1,0.3-3.6,0.8-5.4,1.5c-3.3,1.2-4.2,2.3-4.7,2.9c-0.5,0.7-0.8,1.4-1.1,2.2c-1.1,3.8-0.3,7-0.3,9.4
		c0.1,3.9-1.8,4.6-4,10.9c-1.4,4-2.3,6.7-3.4,14.6C175.8,267.5,166.4,291.7,176.7,301.7z"/>
	<g>
		<polygon class="st20" points="219.4,256.9 219.4,258.6 208.7,258.6 208.7,256.9 207.4,256.9 207.4,258.6 207.4,259.8 221.1,259.8 
			221.1,258.6 221.1,256.9 		"/>
		<rect x="204.9" y="255.7" class="st20" width="18.7" height="5"/>
		<path class="st1" d="M233.7,277.6h-39.4c-13.4,0-24.3-10.9-24.3-24.3v0c0-13.4,10.9-24.3,24.3-24.3h39.4
			c13.4,0,24.3,10.9,24.3,24.3v0C258,266.8,247.1,277.6,233.7,277.6z"/>
		<rect x="209.1" y="251.1" class="st1" width="10.8" height="70.1"/>
		<path d="M219.9,321.8c0,0.3-0.3,0.6-0.6,0.6h-9.5c-0.3,0-0.6-0.3-0.6-0.6s0.3-0.6,0.6-0.6h9.5
			C219.6,321.2,219.9,321.5,219.9,321.8z"/>
		<path class="st21" d="M217.4,323.1V365c0,0.3-0.1,0.6-0.2,0.9c-0.4,1-1.3,1.8-2.5,1.8H214c-1.1,0-2-0.7-2.3-1.7
			c-0.1-0.2-0.1-0.5-0.1-0.7v-42.1c0-0.4,0.3-0.7,0.7-0.7h4.5C217.1,322.4,217.4,322.7,217.4,323.1z"/>
		<path d="M217.8,367v6.6c0,0.8-0.7,1.5-1.5,1.5h-3.7c-0.8,0-1.5-0.7-1.5-1.5V367c0-0.5,0.2-0.9,0.5-1.1c0.3,1,1.2,1.7,2.3,1.7h0.7
			c1.2,0,2.1-0.7,2.5-1.8C217.6,366.1,217.8,366.6,217.8,367z"/>
		<path class="st22" d="M251.2,385.4c-0.2,0.6-0.5,1.2-1,1.5c-0.5,0.3-1,0.5-1.6,0.5c-0.2,0-0.4,0-0.7-0.1l-5.2-1.3l-26.7-6.8h-3
			l-26.7,6.8l-5.2,1.3c-0.2,0.1-0.5,0.1-0.7,0.1c-0.6,0-1.1-0.2-1.6-0.5c-0.5-0.4-0.9-0.9-1-1.5c-0.6-2.3,0.8-4.6,3.1-5.2l30.2-7.7
			v1.1c0,0.8,0.7,1.5,1.5,1.5h3.7c0.8,0,1.5-0.7,1.5-1.5v-1.1l30.3,7.8C250.4,380.9,251.7,383.2,251.2,385.4z"/>
		<path d="M250.1,387v6.6c0,0.8-0.6,1.4-1.4,1.4h-4.6c-0.8,0-1.4-0.6-1.4-1.4v-7.1c0-0.1,0-0.3,0.1-0.4l5.2,1.3
			c0.2,0.1,0.5,0.1,0.7,0.1C249.1,387.5,249.7,387.3,250.1,387z"/>
		<path d="M186.4,386.5v7.1c0,0.8-0.6,1.4-1.4,1.4h-4.6c-0.8,0-1.4-0.6-1.4-1.4V387c0.5,0.3,1,0.5,1.6,0.5c0.2,0,0.4,0,0.7-0.1
			l5.2-1.3C186.4,386.2,186.4,386.3,186.4,386.5z"/>
		<circle class="st1" cx="214.5" cy="260.6" r="3.7"/>
		<path class="st1" d="M255.1,305.8c-4.5,5.5-15.9,7.9-35.3,6.6v-3.3C235.7,309.4,248.5,308.6,255.1,305.8c4.6,2.1,2.6,11.3-12,14.6
			c-6.6,0.3-14.5-0.1-23.2,0.8h-10.8c-8.7-0.8-16.6-0.4-23.2-0.8c-14.6-3.3-16.6-12.5-12-14.6c6.7,2.7,19.4,3.5,35.3,3.3v3.3
			c-19.4,1.3-30.7-1.1-35.3-6.6"/>
	</g>
	<path class="st6" d="M179,333"/>
	<path class="st18" d="M242.3,370h-9.5c-2.6,0-4.7-2.1-4.7-4.7l0,0c0-2.6,2.1-4.7,4.7-4.7h9.5c2.6,0,4.7,2.1,4.7,4.7v0
		C247,367.9,244.9,370,242.3,370z"/>
	<path class="st23" d="M227.2,319.3l-2-5.2l1.4,5.4l20.3-0.3l1.1-3.8c-1.7,5.6-3.3,12.3-4.4,20.1c-1.2,8.5-1.3,16.1-1.1,22.4
		c0,0.4,0,0.8,0,1.2c-3.3,0-6.6,0-9.9,0c-1.1-7.9-2.2-15.7-3.3-23.6c-1.5-7.5-2.9-14.9-4.4-22.4"/>
	<polygon class="st1" points="247,314 215,314 219.9,321.2 241,320.5 	"/>
	<path class="st19" d="M173.1,228.3c0.5,1,1,2,1.4,2.8l8.9-0.1c1.4-7.1,2.8-10.7,3.2-11.7c1.7-3.9,2.4-4.2,3.8-7.8
		c1.9-5.3,3.4-12.9,1.3-14c-1.3-0.7-2.8,1.5-8.5,4.8c-4.8,2.8-5.7,2.9-7.7,4.8c-2.5,2.4-3.3,5.3-3.8,7.1c-1.2,4.5-0.4,8.2,0.2,10.9
		C172.3,226.4,172.7,227.4,173.1,228.3z"/>
	<path class="st19" d="M250,230.8c0,0.4,0,0.8,0,1.2h14c0.1-6,2.3-8.4,0-14.5c-4.1-11-16.6-17.2-18.4-15.5c-1.3,1.1,3,5.2,4.4,14.8
		C250.2,218.3,250.2,222.5,250,230.8z"/>
	<path class="st18" d="M675.3,343h-1.5c-2.6,0-4.7-2.1-4.7-4.7l0,0c0-0.8,0.2-1.5,0.5-2.2c0.8-1.5,2.4-2.5,4.2-2.5h1.5
		c2.6,0,4.7,2.1,4.7,4.7v0C680,340.9,677.9,343,675.3,343z"/>
	<path class="st6" d="M666.7,294.5l-1.5-5.5l1.1,5.7l15.6-0.3c0,0-1.7,8.8-2.5,16.9c-0.2,2.2-0.4,4.3-0.5,6.4
		c-0.4,6.3-0.3,17.8-0.3,18.2c-2.5,0-5.1,0-7.6,0c-0.8-8.2-1.7-16.4-2.5-24.6c-1.1-7.8-2.3-15.6-3.4-23.4"/>
	<path class="st18" d="M677,334.7v1.2c0,2-1.2,3.6-2.6,3.6l0,0c-0.4,0-0.9-0.1-1.2-0.4c-0.8-0.6-1.4-1.8-1.4-3.2v-1.2
		c0-1.5,0.7-2.7,1.6-3.3c0.3-0.2,0.7-0.3,1-0.3l0,0C675.8,331.1,677,332.7,677,334.7z"/>
	<polygon class="st18" points="669.4,336.3 672.6,332.1 676.1,332 679.2,335.6 	"/>
	<path class="st18" d="M707.3,343h-1.5c-2.6,0-4.7-2.1-4.7-4.7l0,0c0-0.8,0.2-1.5,0.5-2.2c0.8-1.5,2.4-2.5,4.2-2.5h1.5
		c2.6,0,4.7,2.1,4.7,4.7v0C712,340.9,709.9,343,707.3,343z"/>
	<path class="st6" d="M698.7,294.5l-1.5-5.5l1.1,5.7l15.6-0.3c0,0-1.7,8.8-2.5,16.9c-0.2,2.2-0.4,4.3-0.5,6.4
		c-0.4,6.3-0.3,17.8-0.3,18.2c-2.5,0-5.1,0-7.6,0c-0.8-8.2-1.7-16.4-2.5-24.6c-1.1-7.8-2.3-15.6-3.4-23.4"/>
	<path class="st18" d="M709,334.7v1.2c0,2-1.2,3.6-2.6,3.6l0,0c-0.4,0-0.9-0.1-1.2-0.4c-0.8-0.6-1.4-1.8-1.4-3.2v-1.2
		c0-1.5,0.7-2.7,1.6-3.3c0.3-0.2,0.7-0.3,1-0.3l0,0C707.8,331.1,709,332.7,709,334.7z"/>
	<polygon class="st18" points="701.4,336.3 704.6,332.1 708.1,332 711.2,335.6 	"/>
	<path class="st24" d="M867,296.2c-1.8,5.1-3.6,11.2-4.8,18.3c-1.3,7.8-1.4,14.7-1.2,20.5c0,0.4,0,0.7,0,1.1c-3.6,0-7.1,0-10.7,0
		c-1.2-7.2-2.4-14.4-3.6-21.5c-1.6-6.8-3.2-13.6-4.8-20.5"/>
	<path class="st25" d="M860.3,349h-9.5c-2.6,0-4.7-2.1-4.7-4.7l0,0c0-2.6,2.1-4.7,4.7-4.7h9.5c2.6,0,4.7,2.1,4.7,4.7v0
		C865,346.9,862.9,349,860.3,349z"/>
	<path class="st25" d="M902.3,351h-9.5c-2.6,0-4.7-2.1-4.7-4.7l0,0c0-2.6,2.1-4.7,4.7-4.7h9.5c2.6,0,4.7,2.1,4.7,4.7v0
		C907,348.9,904.9,351,902.3,351z"/>
	<path class="st24" d="M885.5,298.7l-2.2-5.6l1.6,5.8l22.9-0.3l1.2-4.1c-1.9,5.9-3.8,13.1-5,21.4c-1.3,9.1-1.5,17.2-1.2,23.9
		c0,0.4,0,0.8,0,1.3c-3.7,0-7.4,0-11.1,0c-1.2-8.4-2.5-16.8-3.7-25.1c-1.7-8-3.3-15.9-5-23.9"/>
	<path class="st6" d="M226.9,318.4l-1.7-5.3l1.3,5.5l17.6-0.3l1-3.9c-1.5,5.7-2.9,12.6-3.8,20.5c-1,8.7-1.2,16.5-1,22.9
		c0,0.4,0,0.8,0,1.2c-2.9,0-5.7,0-8.6,0c-1-8-1.9-16.1-2.9-24.1c-1.3-7.6-2.5-15.3-3.8-22.9"/>
</g>
<g>
	<path class="st6" d="M692.7,167.8c3.1,0.4,6.6,0.8,11.1,0c1.1-0.2,6.5-1.2,6.6-3c0.1-1.4-3.1-1.5-5.2-3.7c-5.2-5.6,2.4-19.4,0-20.7
		c-1.3-0.7-3.1,3.7-8.9,5.9c-0.7,0.3-7.2,2.7-13.3,0c-3.6-1.6-5.2-4.2-5.9-3.7c-0.9,0.7,3.1,4.8,3,10.3c-0.1,6.5-5.6,8.9-4.4,11.8
		C676.4,166.7,678.7,166.1,692.7,167.8z"/>
	<path class="st26" d="M729,227c2.5-1.1,3.7-3.3,4-4c2.3-4.9-1.1-9.2-3-17c-2.4-10.1,1.3-11.1-1-19c-3.2-10.9-13.1-18-14.4-17
		c-1,0.7,3,5.3,4.4,14.8c0.2,1.6,0.2,5.8,0,14c-0.1,6.1,0.1,12.3,0,18.4c-0.1,3.4-0.7,5.5,0.7,7.4C721.6,227.1,725.7,228.4,729,227z
		"/>
	<path class="st26" d="M655.2,276c1,0.9,2,0.9,5.1,1c10.8,0.3,21.5,0.9,32.3,1c18.7,0.2,28.6,4,30.6-1c0.6-1.5,0.2-3.1,0-4
		c-3.3-14.2,1.6-24.3,1.7-59.4c0-5.8-0.1-8.3,0-15.5c0.1-7.9,0.2-8.1,0-10.3c-0.5-7.1-0.9-11.8-3.8-14.8c-2.4-2.5-4-0.9-8.2-4.4
		c-1.1-0.9-2.3-2.1-4.4-3c-1.5-0.6-2.8-0.7-3.8-0.7c-5.2-0.2-7.6,2.4-12.5,3c-2.1,0.3-3.9-0.1-7.5-0.7c-6.2-1.1-8.1-2.8-12.5-2.2
		c-2,0.3-3.4,0.8-5,1.5c-3.1,1.3-3.9,2.3-4.4,3c-0.5,0.7-0.8,1.4-1,2.3c-1.1,3.8-0.3,7-0.3,9.5c0.1,3.9-1.7,4.6-3.8,11.1
		c0,0-0.8,1.9-1.5,5.1c-1.7,7.2,1.6,14.8,2.3,16.7C665.9,232.9,646.7,268.7,655.2,276z"/>
	<path class="st26" d="M662.5,168.9c-1.4-0.4-2.3,1.8-7,6c-3,2.7-4.3,3.4-5.3,4.6c-0.3,0.3-0.6,0.7-1,1.2c-0.6,0.9-1.2,2.2-1.6,4.3
		c-1.3,7.2,1.5,13.1,1.5,13.1c0.5,1.1,1,2,1.6,2.9c2.6,3.5,4.6,5.7,5.7,6.9c5.2,5.5,5.2,13.2,5.8,13.1c0.5-0.1-1.2-7.1-1.3-17.1
		c-0.1-8.4,0.6-12.6,0.9-13.8c0.8-3.9,1.5-4.4,2.1-8C664.7,177,664.7,169.6,662.5,168.9z"/>
	<path class="st27" d="M641,250"/>
	<path class="st28" d="M703.8,175.7c-11,6.2-29,5.4-35.8-0.7c-6.7-6.1,4-11.8,1-30.7c-1-6.2-3.6-12.9-1.5-22.7
		c0.8-3.7,1.5-6.5,4.5-9.4c7.1-6.7,19.1-6.1,19.6-6.1c1.6,0.1,10.9,0.8,15.8,6.1c7.9,8.3-5.1,17.1,2.4,30.6c2.3,4.2,2.2,3.9,3.1,7.5
		C713.8,153.8,717.2,168.2,703.8,175.7z"/>
</g>
<g>
	<path class="st6" d="M879.5,177c2.9,0.3,6.1,0.6,10.3,0c1-0.1,6.1-0.9,6.2-2.2c0.1-1-2.9-1.1-4.8-2.7c-4.9-4.1,2.2-14.1,0-15.1
		c-1.2-0.5-2.9,2.7-8.3,4.3c-0.7,0.2-6.7,2-12.4,0c-3.3-1.2-4.9-3-5.5-2.7c-0.8,0.5,2.9,3.5,2.8,7.5c-0.1,4.7-5.3,6.5-4.1,8.6
		C864.4,176.1,866.5,175.7,879.5,177z"/>
	<path class="st29" d="M879,166c-7.1,0.2-12-4.9-14-7c-5.9-6.2-6.7-13.7-7-17c-0.5-4.7-1.1-11.1,3-16.9c6.4-8.9,18.4-8.2,19.2-8.1
		c2.3,0.2,10.6,1.2,15.5,8.1c4.2,6,3.2,12.8,2.3,18.9c-0.6,4.3-1.5,10-6,15C890.4,160.8,885.9,165.8,879,166z"/>
	<g id="XMLID_2_">
		<g>
			<path class="st6" d="M931.9,225.3c1.9,3.9,3.2,6.9,0.9,9.8c-0.1,0.2-1.9,2.5-5.5,3.4c-6.1,1.7-13.8-1.4-16.6-5.5
				c-0.6-0.9-0.7-2.9-0.9-6.9c-0.1-1.2-0.2-3-0.1-7l19.6,1.9l0.5-0.2C930.5,222.5,931.2,223.9,931.9,225.3z"/>
			<path class="st30" d="M929.8,220.8l-0.5,0.2l-19.6-1.9c0-1.5,0-3.4,0.1-5.7c0-1,0-2,0-3.2c0-1,0-0.8,0-1.4
				c0.2-7.7,0.3-11.6,0-13.1c-1.8-8.9-7.1-12.7-5.5-13.8c2.3-1.6,17.9,4.2,23,14.5c3.2,6.3-0.5,8.4,0,15.4c0.1,1.3,0.4,2.8,0.9,4.6
				C928.7,218,929.2,219.5,929.8,220.8z"/>
		</g>
		<g>
		</g>
	</g>
	<path class="st30" d="M841.4,282c1.6,1.6,3.9,2.4,8.5,4c11.9,4,20,1.9,32.5,1c23.5-1.6,26.5,4,30.8-1c5-5.8,1.7-14.6,1.7-48.7
		c0-4.9,0.1-9.8,0-14.8c-0.1-4.5-0.1-8.7,0-15.5c0.1-7.9,0.2-8.1,0-10.3c-0.5-7.1-0.9-11.8-3.8-14.8c-2.4-2.5-4-0.9-8.2-4.4
		c-1.1-0.9-2.3-2.1-4.4-3c-1.5-0.6-2.8-0.7-3.8-0.7c-5.3-0.2-7.7,2.4-12.6,3c-2.1,0.3-3.9-0.1-7.6-0.7c-6.2-1.1-8.1-2.8-12.6-2.2
		c-2,0.3-3.4,0.8-5,1.5c-3.1,1.3-4,2.3-4.4,3c-0.5,0.7-0.8,1.4-1,2.3c-1.1,3.8-0.3,7-0.3,9.5c0.1,3.9-1.7,4.6-3.8,11.1
		c-1.3,4-2.2,6.8-3.2,14.8C840.5,247.4,831.7,271.9,841.4,282z"/>
	<path class="st30" d="M855.8,177.3c-1.6-0.7-3.3,1.3-10.1,4.4c-5.7,2.6-6.8,2.6-9.2,4.4c-3,2.3-4,5-4.6,6.6
		c-1.6,4.2-0.7,7.8,0,10.3c0.4,1.3,0.8,2.3,1.3,3.2c2.3,3.9,4.1,6.5,5.2,7.9c4.9,6.5,3,14,3.7,14c0.7,0,0.3-7.2,2.8-17
		c2-8.2,4-12.2,4.6-13.3c2-3.7,2.9-4,4.6-7.4C856.4,185.6,858.3,178.4,855.8,177.3z"/>
	<path class="st29" d="M216,187c-7.1,0.2-12-4.9-14-7c-5.9-6.2-6.7-13.7-7-17c-0.5-4.7-1.1-11.1,3-16.9c6.4-8.9,18.4-8.2,19.2-8.1
		c2.3,0.2,10.6,1.2,15.5,8.1c4.2,6,3.2,12.8,2.3,18.9c-0.6,4.3-1.5,10-6,15C227.4,181.8,222.9,186.8,216,187z"/>
</g>
<line class="st4" x1="937" y1="220" x2="922" y2="223"/>
<g>
	<path class="st4" d="M315,144"/>
</g>
<g>
	<g>
		<path class="st31" d="M416.5,168.5c2.1,0.2,4.1,0.5,6,0.8"/>
		<path class="st32" d="M434.3,172.1c8.6,2.7,15.6,6.7,21.3,11.7c51.3,44.7,8.9,138.5,61.6,183.3c12.3,10.5,33.6,15.8,76.3,26.4
			c17.9,4.4,41,9.1,82,13c59.2,5.7,104.8,5.1,112,5c243.6-3.2,292.3-0.6,306,28c7.2,14.9,3.4,33.5-3,45c-13.9,25-47.6,30.1-65.9,31"
			/>
		<path class="st31" d="M1018.6,515.6c-3.2,0-5.3-0.1-6.1-0.1"/>
	</g>
</g>
<g>
	<g>
		<path class="st31" d="M1058.5,156.5c1.9,0.1,3.9,0.2,6,0.3"/>
		<path class="st33" d="M1076.6,158.1c16.9,2.6,34.6,8.9,45.5,23.3c12.1,16.1,6.7,30.1,8.4,74.1c0.3,7.8,2.7,62.5,18,120
			c11.3,42.3,19.2,47,18,71c-1.9,39.2-25,66.9-31,74c-35.4,41.5-87,47.7-110.9,48.2"/>
		<path class="st31" d="M1018.5,568.7c-2.8,0-4.9-0.2-6-0.2"/>
	</g>
</g>
<rect x="241" y="170" class="st34" width="30" height="3"/>
<rect x="237" y="161" class="st35" width="33" height="3"/>
<rect x="233" y="178" class="st36" width="17" height="2"/>
<rect x="253" y="178" class="st36" width="17" height="2"/>
<rect x="263" y="147" class="st37" width="8" height="3"/>
<rect x="254" y="147" class="st37" width="8" height="3"/>
<rect x="245" y="147" class="st37" width="8" height="3"/>
<rect x="236" y="147" class="st37" width="8" height="3"/>
<rect x="252" y="153" class="st38" width="19" height="3"/>
<rect x="236" y="153" class="st38" width="15" height="3"/>
<rect x="257" y="192" class="st39" width="17" height="5"/>
<rect x="709" y="133" class="st36" width="14" height="2"/>
<rect x="715" y="145" class="st37" width="8" height="3"/>
<rect x="714" y="151" class="st38" width="7" height="3"/>
<rect x="636" y="120" transform="matrix(-1 -1.224647e-16 1.224647e-16 -1 1299 243)" class="st34" width="27" height="3"/>
<path class="st1" d="M172,243.6l16.1-27.2c2.7-4.6,7.4-7.4,12.4-7.4h27.6c5.3,0,10.3,3.2,12.9,8.3c0,0,1.5,32.8-10.2,31.7L172,243.6
	"/>
<rect x="636" y="125" transform="matrix(-1 -1.224647e-16 1.224647e-16 -1 1300 253)" class="st35" width="28" height="3"/>
<rect x="654" y="131" transform="matrix(-1 -1.224647e-16 1.224647e-16 -1 1317 264)" class="st36" width="9" height="2"/>
<rect x="636" y="131" transform="matrix(-1 -1.224647e-16 1.224647e-16 -1 1289 264)" class="st36" width="17" height="2"/>
<rect x="636" y="143" transform="matrix(-1 -1.224647e-16 1.224647e-16 -1 1280 289)" class="st37" width="8" height="3"/>
<polygon class="st1" points="170,251 171.6,310.8 258,310.8 258,251.2 "/>
<rect x="645" y="143" transform="matrix(-1 -1.224647e-16 1.224647e-16 -1 1298 289)" class="st37" width="8" height="3"/>
<rect x="636" y="149" transform="matrix(-1 -1.224647e-16 1.224647e-16 -1 1291 301)" class="st38" width="19" height="3"/>
<rect x="636" y="156" transform="matrix(-1 -1.224647e-16 1.224647e-16 -1 1285 315)" class="st35" width="13" height="3"/>
<rect x="168" y="155" class="st35" width="23" height="39"/>
<rect x="733" y="120" class="st40" width="10" height="7"/>
<rect x="834" y="127" class="st36" width="14" height="8"/>
<rect x="903" y="127" class="st36" width="36" height="8"/>
<rect x="834" y="141" class="st36" width="14" height="33"/>
<rect x="929" y="171" class="st36" width="10" height="4"/>
<g id="XMLID_3_">
	<g>
		<polygon class="st17" points="405.7,144 389.2,158.4 337.6,156.3 		"/>
		<polygon class="st41" points="389.2,158.4 399.7,177.2 388.3,161.7 359.8,158.7 337.6,156.3 388.4,159.4 		"/>
		<polygon class="st42" points="388.3,161.7 399.7,177.2 389.8,175.9 389.7,175.9 		"/>
		<polygon class="st17" points="389.7,175.9 391.4,192.7 337.6,156.3 359.8,158.7 388.3,161.7 		"/>
		<polygon class="st17" points="389.2,158.4 388.4,159.4 337.6,156.3 		"/>
	</g>
	<g>
	</g>
</g>
<g id="XMLID_4_">
	<g>
		<polygon class="st17" points="1048,133 1032.3,148.6 983.6,146.4 		"/>
		<polygon class="st41" points="1032.3,148.6 1042.3,168.9 1031.5,152.2 983.6,146.4 1031.6,149.6 		"/>
		<polygon class="st42" points="1031.5,152.2 1042.3,168.9 1033,167.5 1032.8,167.5 		"/>
		<polygon class="st17" points="1032.8,167.5 1034.5,185.7 983.6,146.4 1031.5,152.2 		"/>
		<polygon class="st17" points="1032.3,148.6 1031.6,149.6 983.6,146.4 		"/>
	</g>
	<g>
	</g>
</g>
<path class="st18" d="M187,351"/>
<path class="st43" d="M188.5,361.2l2.8-5.6c0.8-1.5,2.5-2.5,4.4-2.5h3c1.8,0,3.4,0.9,4.3,2.2l3.6,5.9"/>
<path class="st43" d="M228.5,363.2l2.8-5.6c0.8-1.5,2.5-2.5,4.4-2.5h3c1.8,0,3.4,0.9,4.3,2.2l3.6,5.9"/>
<path class="st44" d="M188,363c0,0.1,0,0.2,0,0.3c0,2.6,2.1,4.7,4.7,4.7h9.5c2.6,0,4.7-2.1,4.7-4.7v0c0-0.1,0-0.2,0-0.3H188z"/>
<path class="st44" d="M228,365c0,0.1,0,0.2,0,0.3c0,2.6,2.1,4.7,4.7,4.7h9.5c2.6,0,4.7-2.1,4.7-4.7v0c0-0.1,0-0.2,0-0.3H228z"/>
<polygon class="st1" points="255,242 241.5,217 179.7,236.4 "/>
<g>
	<polygon class="st20" points="882.4,234.9 882.4,236.6 871.7,236.6 871.7,234.9 870.4,234.9 870.4,236.6 870.4,237.8 884.1,237.8 
		884.1,236.6 884.1,234.9 	"/>
	<rect x="867.9" y="233.7" class="st20" width="18.7" height="5"/>
	<path class="st1" d="M896.7,255.6h-39.4c-13.4,0-24.3-10.9-24.3-24.3v0c0-13.4,10.9-24.3,24.3-24.3h39.4
		c13.4,0,24.3,10.9,24.3,24.3v0C921,244.8,910.1,255.6,896.7,255.6z"/>
	<rect x="872.1" y="229.1" class="st1" width="10.8" height="70.1"/>
	<path class="st1" d="M918.1,283.8c-4.5,5.5-15.9,7.9-35.3,6.6v-3.3C898.7,287.4,911.5,286.6,918.1,283.8c4.6,2.1,2.6,11.3-12,14.6
		c-6.6,0.3-14.5-0.1-23.2,0.8h-10.8c-8.7-0.8-16.6-0.4-23.2-0.8c-14.6-3.3-16.6-12.5-12-14.6c6.7,2.7,19.4,3.5,35.3,3.3v3.3
		c-19.4,1.3-30.7-1.1-35.3-6.6"/>
	<path d="M882.9,299.8c0,0.3-0.3,0.6-0.6,0.6h-9.5c-0.3,0-0.6-0.3-0.6-0.6s0.3-0.6,0.6-0.6h9.5C882.6,299.2,882.9,299.5,882.9,299.8
		z"/>
	<path class="st21" d="M880.4,301.1V343c0,0.3-0.1,0.6-0.2,0.9c-0.4,1-1.3,1.8-2.5,1.8H877c-1.1,0-2-0.7-2.3-1.7
		c-0.1-0.2-0.1-0.5-0.1-0.7v-42.1c0-0.4,0.3-0.7,0.7-0.7h4.5C880.1,300.4,880.4,300.7,880.4,301.1z"/>
	<path d="M880.8,345v6.6c0,0.8-0.7,1.5-1.5,1.5h-3.7c-0.8,0-1.5-0.7-1.5-1.5V345c0-0.5,0.2-0.9,0.5-1.1c0.3,1,1.2,1.7,2.3,1.7h0.7
		c1.2,0,2.1-0.7,2.5-1.8C880.6,344.1,880.8,344.6,880.8,345z"/>
	<path class="st22" d="M914.2,363.4c-0.2,0.6-0.5,1.2-1,1.5c-0.5,0.3-1,0.5-1.6,0.5c-0.2,0-0.4,0-0.7-0.1l-5.2-1.3l-26.7-6.8h-3
		l-26.7,6.8l-5.2,1.3c-0.2,0.1-0.5,0.1-0.7,0.1c-0.6,0-1.1-0.2-1.6-0.5c-0.5-0.4-0.9-0.9-1-1.5c-0.6-2.3,0.8-4.6,3.1-5.2l30.2-7.7
		v1.1c0,0.8,0.7,1.5,1.5,1.5h3.7c0.8,0,1.5-0.7,1.5-1.5v-1.1l30.3,7.8C913.4,358.9,914.7,361.2,914.2,363.4z"/>
	<path d="M913.1,365v6.6c0,0.8-0.6,1.4-1.4,1.4h-4.6c-0.8,0-1.4-0.6-1.4-1.4v-7.1c0-0.1,0-0.3,0.1-0.4l5.2,1.3
		c0.2,0.1,0.5,0.1,0.7,0.1C912.1,365.5,912.7,365.3,913.1,365z"/>
	<path d="M849.4,364.5v7.1c0,0.8-0.6,1.4-1.4,1.4h-4.6c-0.8,0-1.4-0.6-1.4-1.4V365c0.5,0.3,1,0.5,1.6,0.5c0.2,0,0.4,0,0.7-0.1
		l5.2-1.3C849.4,364.2,849.4,364.3,849.4,364.5z"/>
	<circle class="st1" cx="877.5" cy="238.6" r="3.7"/>
</g>
<path class="st1" d="M837.2,217.8l15.3-25.8c2.6-4.4,7-7,11.7-7h26.3c5.1,0,9.7,3,12.2,7.9c0,0,1.5,31.1-9.7,30.1L837.2,217.8"/>
<polygon class="st1" points="916,216.4 903.1,192.6 844.5,211.1 "/>
<polygon class="st1" points="833,229 834.6,288.8 921,288.8 921,229.2 "/>
<g>
	<polygon class="st20" points="694.4,234.9 694.4,236.6 683.7,236.6 683.7,234.9 682.4,234.9 682.4,236.6 682.4,237.8 696.1,237.8 
		696.1,236.6 696.1,234.9 	"/>
	<rect x="679.9" y="233.7" class="st20" width="18.7" height="5"/>
	<path class="st1" d="M708.7,255.6h-39.4c-13.4,0-24.3-10.9-24.3-24.3v0c0-13.4,10.9-24.3,24.3-24.3h39.4
		c13.4,0,24.3,10.9,24.3,24.3v0C733,244.8,722.1,255.6,708.7,255.6z"/>
	<rect x="684.1" y="229.1" class="st1" width="10.8" height="70.1"/>
	<path class="st1" d="M730.1,283.8c-4.5,5.5-15.9,7.9-35.3,6.6v-3.3C710.7,287.4,723.5,286.6,730.1,283.8c4.6,2.1,2.6,11.3-12,14.6
		c-6.6,0.3-14.5-0.1-23.2,0.8h-10.8c-8.7-0.8-16.6-0.4-23.2-0.8c-14.6-3.3-16.6-12.5-12-14.6c6.7,2.7,19.4,3.5,35.3,3.3v3.3
		c-19.4,1.3-30.7-1.1-35.3-6.6"/>
	<path d="M694.9,299.8c0,0.3-0.3,0.6-0.6,0.6h-9.5c-0.3,0-0.6-0.3-0.6-0.6s0.3-0.6,0.6-0.6h9.5C694.6,299.2,694.9,299.5,694.9,299.8
		z"/>
	<path class="st21" d="M692.4,301.1V343c0,0.3-0.1,0.6-0.2,0.9c-0.4,1-1.3,1.8-2.5,1.8H689c-1.1,0-2-0.7-2.3-1.7
		c-0.1-0.2-0.1-0.5-0.1-0.7v-42.1c0-0.4,0.3-0.7,0.7-0.7h4.5C692.1,300.4,692.4,300.7,692.4,301.1z"/>
	<path d="M692.8,345v6.6c0,0.8-0.7,1.5-1.5,1.5h-3.7c-0.8,0-1.5-0.7-1.5-1.5V345c0-0.5,0.2-0.9,0.5-1.1c0.3,1,1.2,1.7,2.3,1.7h0.7
		c1.2,0,2.1-0.7,2.5-1.8C692.6,344.1,692.8,344.6,692.8,345z"/>
	<path class="st22" d="M726.2,363.4c-0.2,0.6-0.5,1.2-1,1.5c-0.5,0.3-1,0.5-1.6,0.5c-0.2,0-0.4,0-0.7-0.1l-5.2-1.3l-26.7-6.8h-3
		l-26.7,6.8l-5.2,1.3c-0.2,0.1-0.5,0.1-0.7,0.1c-0.6,0-1.1-0.2-1.6-0.5c-0.5-0.4-0.9-0.9-1-1.5c-0.6-2.3,0.8-4.6,3.1-5.2l30.2-7.7
		v1.1c0,0.8,0.7,1.5,1.5,1.5h3.7c0.8,0,1.5-0.7,1.5-1.5v-1.1l30.3,7.8C725.4,358.9,726.7,361.2,726.2,363.4z"/>
	<path d="M725.1,365v6.6c0,0.8-0.6,1.4-1.4,1.4h-4.6c-0.8,0-1.4-0.6-1.4-1.4v-7.1c0-0.1,0-0.3,0.1-0.4l5.2,1.3
		c0.2,0.1,0.5,0.1,0.7,0.1C724.1,365.5,724.7,365.3,725.1,365z"/>
	<path d="M661.4,364.5v7.1c0,0.8-0.6,1.4-1.4,1.4h-4.6c-0.8,0-1.4-0.6-1.4-1.4V365c0.5,0.3,1,0.5,1.6,0.5c0.2,0,0.4,0,0.7-0.1
		l5.2-1.3C661.4,364.2,661.4,364.3,661.4,364.5z"/>
	<circle class="st1" cx="689.5" cy="238.6" r="3.7"/>
</g>
<path class="st1" d="M649.2,217.8l15.3-25.8c2.6-4.4,7-7,11.7-7h26.3c5.1,0,9.7,3,12.2,7.9c0,0,1.5,31.1-9.7,30.1L649.2,217.8"/>
<polygon class="st1" points="728,216.4 715.1,192.6 656.5,211.1 "/>
<polygon class="st1" points="645,229 646.6,288.8 733,288.8 733,229.2 "/>
<polyline points="671.6,342.4 673.6,347 675.8,347 678,342 "/>
<polyline points="704,342.4 705.8,347 707.9,347 710,342 "/>
<path class="st45" d="M846.5,341.2l2.8-5.6c0.8-1.5,2.5-2.5,4.4-2.5h3c1.8,0,3.4,0.9,4.3,2.2l3.6,5.9"/>
<path class="st45" d="M888.5,343.2l2.8-5.6c0.8-1.5,2.5-2.5,4.4-2.5h3c1.8,0,3.4,0.9,4.3,2.2l3.6,5.9"/>
<line class="st1" x1="222" y1="310" x2="223.6" y2="320.9"/>
<path class="st1" d="M579,959c17,4.9,33,7,48,7c0.3,0,0.7,0,1,0c6.8,0.3,14.9,0.2,24-1c9.7-1.3,18-3.4,24.8-5.6
	c1.1,4.9,2.2,9.8,3.2,14.6H577C577.7,969,578.3,964,579,959z"/>
<polyline class="st1" points="0,959 0,973 526.5,973.8 680,974 1357,975 1357,966 687,966 "/>
<polygon class="st1" points="1349,942 1357,975 1302.1,974.5 1295,942 "/>
<path class="st1" d="M1442,646c9.7-6.9,42.3-29.4,90-49c52-21.3,95.2-28.2,108-30c37-5.4,43.6-1.4,100-9c35-4.7,52.8-7.2,68-14
	c16.5-7.3,28.1-16,69-39c3.9-2.2,10.9-6.1,20-11c9.5-5.1,17.4-9.2,23-12v491l-563,2c-8.1-19.3-63.4-156.3,0-249
	C1383,687.9,1431.9,653.2,1442,646z"/>
<line class="st46" x1="1492" y1="615" x2="1492" y2="981"/>
</svg>
